<svg width="48" height="48" viewBox="0 0 48 48" fill="none" xmlns="http://www.w3.org/2000/svg">
<path opacity="0.4" d="M34.186 41.8683H9.3484C5.902 41.8683 3.1084 39.0747 3.1084 35.6283V12.5955C3.1084 9.14907 5.902 6.35547 9.3484 6.35547H34.1836C37.63 6.35547 40.4236 9.14907 40.4236 12.5955V35.6307C40.426 39.0747 37.6324 41.8683 34.186 41.8683Z" fill="#61A9FF"/>
<path opacity="0.4" d="M28.6586 32.8055H41.537C43.6298 32.8055 45.3266 31.1087 45.3266 29.0159V19.2095C45.3266 17.1167 43.6298 15.4199 41.537 15.4199H28.6586C23.8586 15.4199 19.9658 19.3127 19.9658 24.1127C19.9658 28.9127 23.8562 32.8055 28.6586 32.8055Z" fill="#61A9FF"/>
<path d="M40.4258 15.4199H28.6586C23.8586 15.4199 19.9658 19.3127 19.9658 24.1127C19.9658 28.9127 23.8586 32.8055 28.6586 32.8055H40.4258V15.4199Z" fill="#61A9FF"/>
<path d="M26.9854 24.1129C26.9854 24.6966 27.2172 25.2564 27.63 25.6691C28.0427 26.0818 28.6025 26.3137 29.1862 26.3137C29.7699 26.3137 30.3296 26.0818 30.7424 25.6691C31.1551 25.2564 31.387 24.6966 31.387 24.1129C31.387 23.5292 31.1551 22.9694 30.7424 22.5567C30.3296 22.144 29.7699 21.9121 29.1862 21.9121C28.6025 21.9121 28.0427 22.144 27.63 22.5567C27.2172 22.9694 26.9854 23.5292 26.9854 24.1129Z" fill="#5865FF"/>
</svg>
